<svg xmlns="http://www.w3.org/2000/svg" viewBox="0 0 1024 1024">
  <path d="M588.8 579.072c-15.872 0-28.672 12.8-28.672 28.672V758.272c0 15.872 12.8 28.672 28.672 28.672s28.672-12.8 28.672-28.672v-150.528c-3.072-15.872-15.872-28.672-28.672-28.672zM732.672 428.544c-15.872 0-28.672 12.8-28.672 28.672v297.472c0 15.872 12.8 28.672 28.672 28.672s28.672-12.8 28.672-28.672v-297.472c0-15.872-12.8-28.672-28.672-28.672zM857.6 140.8c-12.8-12.8-25.6-15.872-41.472-12.8l-166.4 41.472c-15.872 3.072-28.672 12.8-31.744 28.672-6.144 15.872 0 31.744 9.728 41.472l25.6 28.672-82.944 82.944-105.472-99.328c-19.456-19.456-51.2-19.456-70.656 0l-182.272 179.2c-19.456 19.456-19.456 54.272 0 73.728 9.728 9.728 25.6 15.872 38.4 15.872s25.6-3.072 38.4-15.872l147.456-137.728 105.472 99.328c19.456 19.456 51.2 19.456 70.656 0l118.272-118.272 25.6 25.6c9.728 9.728 28.672 12.8 41.472 9.728 12.8-6.144 25.6-15.872 28.672-31.744l41.472-169.472c5.632-15.872-0.512-31.744-10.24-41.472zM301.056 627.2c-12.8 0-25.6 6.144-35.328 15.872s-15.872 25.6-15.872 38.4v73.728c0 28.672 22.528 54.272 51.2 54.272 25.6 0 51.2-22.528 51.2-54.272V681.472c0-28.672-22.528-54.272-51.2-54.272z" />
  <path d="M454.656 492.544c-28.672 0-51.2 22.528-51.2 51.2v210.944c0 31.744 22.528 54.272 51.2 54.272s51.2-22.528 51.2-51.2v-210.944c0-31.744-22.528-54.272-51.2-54.272zM585.728 553.472c-28.672 0-51.2 22.528-51.2 51.2v150.528c0 31.744 22.528 54.272 51.2 54.272s51.2-22.528 51.2-51.2v-150.528c0-31.744-22.528-54.272-51.2-54.272z m6.144 204.8c0 6.144-9.728 6.144-9.728 0v-150.528c0-2.56 2.048-5.12 4.608-6.144 2.56 1.024 4.608 3.584 4.608 6.144V758.272zM732.672 406.528c-28.672 0-51.2 22.528-51.2 51.2v297.472c0 31.744 22.528 54.272 51.2 54.272s51.2-22.528 51.2-51.2v-297.472c0-32.256-22.016-54.272-51.2-54.272z m3.584 54.272V758.272c0 6.144-9.728 6.144-9.728 0v-297.472c0-3.072 3.072-6.144 6.144-6.144s6.656-0.512 3.584 6.144z"  />
  <path d="M921.6 819.2c0 57.344-44.544 102.4-102.4 102.4h-614.4c-57.344 0-102.4-45.056-102.4-102.4v-614.4c0-57.344 45.056-102.4 102.4-102.4h409.6l102.4-102.4h-547.328c-92.672 0-169.472 76.8-169.472 169.472v681.472c0 96.256 76.8 173.056 169.472 173.056h681.472c92.672 0 169.472-76.8 169.472-169.472V307.2l-102.4 102.4 3.584 409.6z"  />
</svg>