<svg t="1765110608383"  viewBox="0 0 1024 1024"  xmlns="http://www.w3.org/2000/svg">
    <path d="M413.129143 493.659429L192 346.221714V694.857143a45.714286 45.714286 0 0 0 45.714286 45.714286h548.571428a45.714286 45.714286 0 0 0 45.714286-45.714286V348.580571l-221.147429 145.773715 135.149715 159.707428c7.881143 9.325714-6.070857 21.12-13.952 11.812572l-135.277715-159.853715a10.971429 10.971429 0 0 1-1.152-1.627428l-78.592 51.803428a9.142857 9.142857 0 0 1-10.093714-0.018285l-78.866286-52.571429a9.142857 9.142857 0 0 1-1.462857 2.377143l-133.723428 159.853714a9.142857 9.142857 0 1 1-14.025143-11.721143l133.741714-159.872a9.252571 9.252571 0 0 1 0.548572-0.585142zM192 324.242286L512.036571 537.6 832 326.674286V310.857143a45.714286 45.714286 0 0 0-45.714286-45.714286H237.714286a45.714286 45.714286 0 0 0-45.714286 45.714286v13.385143zM237.714286 237.714286h548.571428a73.142857 73.142857 0 0 1 73.142857 73.142857v384a73.142857 73.142857 0 0 1-73.142857 73.142857H237.714286a73.142857 73.142857 0 0 1-73.142857-73.142857V310.857143a73.142857 73.142857 0 0 1 73.142857-73.142857z" >
    </path>
</svg>